<?xml version="1.0" encoding="UTF-8" standalone="no"?>
<!-- Created with Inkscape (http://www.inkscape.org/) -->

<svg
   width="132.29167mm"
   height="132.29167mm"
   viewBox="0 0 132.29167 132.29167"
   version="1.1"
   id="svg1"
   sodipodi:docname="rose.svg"
   inkscape:version="1.4 (e7c3feb100, 2024-10-09)"
   xmlns:inkscape="http://www.inkscape.org/namespaces/inkscape"
   xmlns:sodipodi="http://sodipodi.sourceforge.net/DTD/sodipodi-0.dtd"
   xmlns="http://www.w3.org/2000/svg"
   xmlns:svg="http://www.w3.org/2000/svg">
  <sodipodi:namedview
     id="namedview1"
     pagecolor="#ffffff"
     bordercolor="#000000"
     borderopacity="0.25"
     inkscape:showpageshadow="2"
     inkscape:pageopacity="0.0"
     inkscape:pagecheckerboard="0"
     inkscape:deskcolor="#d1d1d1"
     inkscape:document-units="mm"
     inkscape:zoom="0.42727869"
     inkscape:cx="19.89334"
     inkscape:cy="255.10283"
     inkscape:window-width="1536"
     inkscape:window-height="898"
     inkscape:window-x="0"
     inkscape:window-y="0"
     inkscape:window-maximized="1"
     inkscape:current-layer="svg1" />
  <defs
     id="defs1" />
  <g
     id="g1"
     transform="matrix(1.502251,0,0,1.502251,-33.362116,-4.4460893)"
     style="stroke-width:0.665668;fill:#f8a7b7;fill-opacity:1">
    <path
       id="path1"
       d="M 43.34678,56.793856 C 37.944849,53.076296 27.373761,43.315464 28.645449,34.520758 29.809335,26.449789 42.290014,17.281543 47.356858,18.698116 c 2.349741,0.65713 -1.880067,4.562151 -3.411999,6.455952 -3.532165,4.364392 -6.922879,6.225921 -5.77204,10.492808 2.330515,8.669047 7.564216,12.837743 5.173961,21.14698 z m -13.032754,2.145805 c -2.228888,7.019696 4.522326,20.616194 11.388896,23.402649 10.350671,4.205775 25.803205,6.523243 28.412501,3.790349 C 73.798652,82.278451 59.856079,75.907646 55.489626,78.756587 50.387762,82.087561 36.362104,75.950905 40.833616,63.676909 42.467173,60.077452 33.395745,49.262601 30.314026,58.939661 Z"
       style="fill:#f8a7b7;fill-opacity:1;fill-rule:nonzero;stroke:none;stroke-width:0.234834" />
    <path
       id="path2"
       d="m 96.941059,59.427874 c 3.060431,-2.006413 8.226151,-2.172584 7.247671,3.602203 C 99.733009,72.050692 89.900077,83.061241 76.705959,79.443244 60.298974,74.939459 58.01309,73.056646 47.686454,75.291029 41.967974,76.529758 43.607023,59.927073 46.75878,60.653557 c 9.479302,2.186315 8.215853,24.744377 50.182279,-1.225683 z"
       style="fill:#f8a7b7;fill-opacity:1;fill-rule:nonzero;stroke:none;stroke-width:0.234834" />
    <path
       id="path3"
       d="m 43.754654,37.74736 c -0.02129,4.09591 7.612283,17.85858 12.614579,18.370826 0.405128,-9.124988 -6.686666,-21.135994 3.583665,-26.693797 13.620531,-5.62441 20.958836,3.580917 21.986076,1.678876 C 82.118883,14.958582 44.642503,17.79173 43.754654,37.74736 Z"
       style="fill:#f8a7b7;fill-opacity:1;fill-rule:nonzero;stroke:none;stroke-width:0.234834" />
    <path
       id="path5"
       d="m 77.448923,32.916726 c 0.252002,1.560772 -10.249046,-2.290687 -12.112634,9.672254 -0.488213,3.124976 -0.153125,7.032743 2.108038,9.248584 1.756469,1.718704 7.174882,-0.949645 7.231188,1.50172 0.0618,2.612732 -7.963851,4.546358 -12.051521,3.604951 -1.38636,-0.319296 -2.848254,-1.494167 -3.135276,-2.88602 -0.587779,-2.853748 0.07484,-11.410182 1.509958,-16.154985 1.69261,-5.611362 15.766335,-9.25133 16.450247,-4.986504 z"
       style="fill:#f8a7b7;fill-opacity:1;fill-rule:nonzero;stroke:none;stroke-width:0.234834" />
    <path
       id="path6"
       d="m 74.04791,37.570202 c 2.513164,0.405128 6.032282,1.834748 5.748006,5.60587 -0.517739,6.957897 -3.706575,6.021984 -4.84162,3.006872 -0.563057,-1.491421 0.938662,-3.352947 -2.494624,-3.762883 -3.567185,-0.431907 -2.633331,5.16847 -1.174184,6.3248 7.904111,6.260253 18.536997,-7.014202 4.916466,-12.735431 -1.01694,-0.426414 -3.015113,1.424127 -2.154044,1.560772 z"
       style="fill:#f8a7b7;fill-opacity:1;fill-rule:nonzero;stroke:none;stroke-width:0.234834" />
    <path
       id="path7"
       d="M 104.04384,30.336268 C 103.27891,18.588252 83.473653,5.1847034 58.418218,9.7770673 54.886055,10.42321 48.236467,18.139864 50.977603,20.352961 52.453228,21.543623 61.43333,16.935468 65.550527,16.975981 76.41619,17.083093 85.074938,18.939133 88.45947,29.231438 93.078613,46.767975 86.369973,54.353477 69.9417,60.066465 57.65397,63.437952 53.362363,53.966889 53.150184,58.279782 54.217937,76.961665 106.47873,67.909464 104.04384,30.336268 Z"
       style="fill:#f8a7b7;fill-opacity:1;fill-rule:nonzero;stroke:none;stroke-width:0.234834" />
  </g>
</svg>
